# xmcd
#
# Track frame offsets: 
#        150
#        13904
#        24928
#        39581
#        56082
#        75530
#        95879
#        107224
#        125403
#        138723
#        155776
#        168596
#        184308
#        203190
#        217117
#        233167
#        245636
#        258666
#
# Disc length: 3762 seconds
#
# Revision: 3
# Processed by: cddbd v1.5.2PL0 Copyright (c) Steve Scherf et al.
# Submitted via: ExactAudioCopy v1.0b6
#
DISCID=130eb012
DTITLE=Various Artist - Country Songs of American 3
DYEAR=2000
DGENRE=Country
TTITLE0=Where Have All The Flowers Gone
TTITLE1=Take Me Home Country Road
TTITLE2=River Of No Return
TTITLE3=Try To Remember
TTITLE4=Love Me Tender
TTITLE5=You've Got A Friend
TTITLE6=Rhythm Of The Rain
TTITLE7=I Love You So
TTITLE8=Tennessee Waltz
TTITLE9=Leaving On A Jet Plane
TTITLE10=California Dream
TTITLE11=Always On My Mind
TTITLE12=Don't Cry Joni
TTITLE13=It Never Rains In Southern California
TTITLE14=Unchained Melody
TTITLE15=I'll Never Fall In Love Again
TTITLE16=Moon River
TTITLE17=The Wedding
EXTD=
EXTT0=
EXTT1=
EXTT2=
EXTT3=
EXTT4=
EXTT5=
EXTT6=
EXTT7=
EXTT8=
EXTT9=
EXTT10=
EXTT11=
EXTT12=
EXTT13=
EXTT14=
EXTT15=
EXTT16=
EXTT17=
PLAYORDER=
